<svg width="32" height="32" viewBox="0 0 32 32" fill="none" xmlns="http://www.w3.org/2000/svg">
<g clip-path="url(#clip0_7798_131)">
<path d="M13.247 1.06046C14.9504 0.0770158 17.0491 0.0770161 18.7524 1.06046L27.5616 6.14644C29.265 7.12988 30.3143 8.94736 30.3143 10.9142V21.0862C30.3143 23.0531 29.265 24.8706 27.5616 25.854L18.7524 30.94C17.0491 31.9234 14.9504 31.9234 13.247 30.94L4.43786 25.854C2.73449 24.8706 1.68517 23.0531 1.68517 21.0862V10.9142C1.68517 8.94736 2.73449 7.12988 4.43786 6.14644L13.247 1.06046Z" fill="url(#paint0_linear_7798_131)"/>
<mask id="mask0_7798_131" style="mask-type:alpha" maskUnits="userSpaceOnUse" x="1" y="0" width="30" height="32">
<path d="M13.247 1.06046C14.9504 0.0770158 17.0491 0.0770161 18.7524 1.06046L27.5616 6.14644C29.265 7.12988 30.3143 8.94736 30.3143 10.9142V21.0862C30.3143 23.0531 29.265 24.8706 27.5616 25.854L18.7524 30.94C17.0491 31.9234 14.9504 31.9234 13.247 30.94L4.43786 25.854C2.73449 24.8706 1.68517 23.0531 1.68517 21.0862V10.9142C1.68517 8.94736 2.73449 7.12988 4.43786 6.14644L13.247 1.06046Z" fill="#83E1E1"/>
</mask>
<g mask="url(#mask0_7798_131)">
<path d="M6.28563 12.4727L-3.16106 18.3615L-11.3451 23.8612C-11.6495 24.0658 -11.832 24.4084 -11.832 24.7751V50.8604C-11.832 51.4685 -11.3391 51.9615 -10.731 51.9615H43.7379C44.346 51.9615 44.8389 51.4685 44.8389 50.8604V27.5608C44.8389 27.1836 44.6459 26.8327 44.3273 26.6308L16.7544 9.15618C16.319 8.88025 15.7505 8.9433 15.3861 9.30793L10.6363 14.0614C10.2062 14.4918 9.5086 14.4918 9.07854 14.0614L7.64699 12.6288C7.28481 12.2663 6.72046 12.2016 6.28563 12.4727Z" fill="url(#paint1_linear_7798_131)"/>
<path d="M6.62637 15L1 19.5333H5.30769C5.72967 19.5333 7.30037 21.8444 8.03297 23L9 17.5778L6.62637 15Z" fill="url(#paint2_linear_7798_131)"/>
<path d="M13.0193 17L16 12L28 19L25.2516 20.2191L18.5 20L12 26L15 19L13.0193 17Z" fill="url(#paint3_linear_7798_131)"/>
</g>
</g>
<defs>
<linearGradient id="paint0_linear_7798_131" x1="15.9997" y1="-0.528809" x2="15.9997" y2="32.5293" gradientUnits="userSpaceOnUse">
<stop stop-color="#22AFFF"/>
<stop offset="1" stop-color="#1D41FF"/>
</linearGradient>
<linearGradient id="paint1_linear_7798_131" x1="16.5035" y1="8.68408" x2="16.5035" y2="51.9615" gradientUnits="userSpaceOnUse">
<stop stop-color="#1B3573"/>
<stop offset="1" stop-color="#131E39"/>
</linearGradient>
<linearGradient id="paint2_linear_7798_131" x1="8.5" y1="16" x2="-3" y2="33" gradientUnits="userSpaceOnUse">
<stop stop-color="#FCFCFD"/>
<stop offset="1" stop-color="white" stop-opacity="0"/>
</linearGradient>
<linearGradient id="paint3_linear_7798_131" x1="16.5" y1="12" x2="27" y2="50" gradientUnits="userSpaceOnUse">
<stop stop-color="white"/>
<stop offset="1" stop-color="#192E5F"/>
</linearGradient>
<clipPath id="clip0_7798_131">
<rect width="32" height="32" fill="white"/>
</clipPath>
</defs>
</svg>
